<?xml version="1.0" encoding="UTF-8" standalone="no"?>
<svg xmlns:rdf="http://www.w3.org/1999/02/22-rdf-syntax-ns#" xmlns="http://www.w3.org/2000/svg" version="1.1" xmlns:cc="http://creativecommons.org/ns#" viewBox="0 0 16.006231 16.026028" xmlns:dc="http://purl.org/dc/elements/1.1/">
<metadata>
<rdf:RDF>
<cc:Work rdf:about="">
<dc:format>image/svg+xml</dc:format>
<dc:type rdf:resource="http://purl.org/dc/dcmitype/StillImage"/>
</cc:Work>
</rdf:RDF>
</metadata>
<g transform="translate(-279.99377,-64.973972)">
<rect stroke-linejoin="round" style="color:#000000" transform="translate(0 21)" height="16" width="16" y="44" x="280" stroke-width=".531496" fill="none"/>
<g transform="translate(0 21)">
<path stroke-linejoin="round" d="m283.5 49.5 1.7679-1.80656c0.5-0.5 1.5-0.5 2 0l1 1c0.5 0.5 0.5 1.5 0 2l-1.7679 1.80656-6-6m13.2061-1.5c-0.2173-0.36011-0.8214-0.60415-1.2708-0.5l-1.9971 0.42262c-0.5148 0.17433-0.7976 0.85161-0.6547 1.29675l0.2592 1.91231c0.0876 0.4703 0.8162 0.92394 1.3837 0.82963l1.5871-0.28322c0.6641-0.14912 1.0187-0.68512 0.9865-1.14375m-8.5 5.96566c-0.1399 0.48808-0.5893 0.89879-1 1l-2-0.80656c-0.6934-0.16961-1.3095 0.16372-1.5 0.80656l-0.4613 1.84525c-0.1429 0.69344 0.0625 1.46425 0.6547 1.65475l1.9971 0.38394c0.6041 0.16961 1.2731-0.51299 1.3095-1.07738 0.0677-1.05151 0.2321-1.90973 0-2.80656" stroke="#000" stroke-linecap="round" stroke-width="1px" fill="none"/>
</g>
<path stroke-linejoin="round" d="m286.5 80.5c0-5 4-9 9-9" stroke="#646464" stroke-linecap="round" stroke-miterlimit="0" stroke-width="1.0000002" fill="none"/>
</g>
</svg>
